<svg id="Layer_1" data-name="Layer 1" xmlns="http://www.w3.org/2000/svg" viewBox="0 0 473.44 780.9"><defs><style>.cls-1{fill:#fff;}.cls-1,.cls-2,.cls-3,.cls-4,.cls-5,.cls-6{stroke:#29abe2;stroke-miterlimit:10;stroke-width:0.25px;}.cls-2{fill:#a6e6fa;}.cls-3{fill:#c4edfa;}.cls-4{fill:#87c5de;}.cls-5{fill:#8cd7f0;}.cls-6{fill:#e1f6fd;}</style></defs><polygon class="cls-1" points="243.32 315.34 277.53 345.04 322.91 376.25 322.91 541.39 245.1 767.44 243.32 315.34"/><polygon class="cls-2" points="245.1 767.44 209.12 652.79 209.12 434.73 243.32 498.57 245.1 767.44"/><polygon class="cls-3" points="243.32 315.34 182.84 348.8 182.84 407.11 209.12 434.73 243.32 498.57 243.32 315.34"/><polygon class="cls-4" points="129.51 345.04 182.84 407.11 182.84 524.41 129.51 446.47 129.51 345.04"/><polygon class="cls-5" points="182.84 348.8 174.92 78.86 129.51 223.55 129.51 345.04 182.84 407.11 182.84 348.8"/><polygon class="cls-1" points="129.51 223.55 71.65 13.46 71.65 191.15 129.51 345.04 129.51 223.55"/><polygon class="cls-5" points="71.65 231.91 71.65 191.15 129.51 345.04 71.65 231.91"/><polygon class="cls-6" points="182.84 348.8 174.92 78.86 202.45 19.82 243.32 314.43 182.84 348.8"/><polygon class="cls-3" points="243.32 314.43 202.45 19.82 245.1 109.09 243.32 314.43"/><polygon class="cls-5" points="370.81 329.37 322.91 478.92 381.44 376.25 370.81 329.37"/><polygon class="cls-3" points="161.46 493.17 161.46 593.7 209.12 652.79 182.84 524.41 161.46 493.17"/><polygon class="cls-3" points="182.84 407.11 182.84 524.41 209.12 652.79 209.12 434.73 182.84 407.11"/><polygon class="cls-4" points="322.91 541.39 381.44 376.25 322.91 478.92 322.91 541.39"/><polygon class="cls-3" points="391.48 78.86 359.62 13.46 305.57 285.74 322.91 329.37 391.48 78.86"/><polygon class="cls-5" points="245.1 109.09 273.88 13.46 273.88 265.85 243.32 314.43 245.1 109.09"/><polygon class="cls-3" points="273.88 265.85 277.53 345.04 243.32 314.43 273.88 265.85"/><polygon class="cls-1" points="305.57 285.74 273.88 265.85 277.53 345.04 322.91 376.25 322.91 329.37 305.57 285.74"/><polygon class="cls-4" points="71.65 163.94 0.22 13.46 71.65 13.46 71.65 163.94"/><polygon class="cls-3" points="202.45 13.46 71.65 13.46 129.51 223.55 174.92 78.86 202.45 19.82 202.45 13.46"/><polygon class="cls-1" points="273.88 13.46 202.45 13.46 202.45 19.82 245.1 109.09 273.88 13.46"/><polygon class="cls-6" points="359.62 13.46 313.28 13.46 305.57 144.01 294.37 278.71 305.57 285.74 359.62 13.46"/><polygon class="cls-1" points="273.88 13.46 313.28 13.46 305.57 149.6 273.88 13.46"/><polygon class="cls-3" points="273.88 265.85 273.88 13.46 305.57 149.6 294.37 278.71 273.88 265.85"/><polygon class="cls-6" points="359.62 13.46 473.22 13.94 420.06 88.43 400.01 147.15 391.48 78.86 359.62 13.46"/><polygon class="cls-3" points="347.56 239.29 322.91 329.37 322.91 376.25 322.91 478.92 370.81 329.37 367.32 167.13 347.56 239.29"/><polygon class="cls-2" points="391.48 78.86 367.32 167.13 370.81 329.37 400.01 147.15 391.48 78.86"/><polygon class="cls-4" points="375.22 348.8 429.06 223.55 439.44 61.27 420.06 88.43 400.01 147.15 370.81 329.37 375.22 348.8"/></svg>